REM DISCID 123456789
FILE "en.wav" WAVE
  TRACK 01 AUDIO
    INDEX 00 00:00:00
    INDEX 01 00:00:33
  TRACK 02 AUDIO
    INDEX 01 00:46:00
  TRACK 03 AUDIO
    INDEX 00 01:22:22
    INDEX 01 01:25:10
  TRACK 04 AUDIO
    INDEX 00 02:39:54
    INDEX 01 02:41:05
